<?xml version="1.0" encoding="UTF-8" standalone="no"?>
<svg width="130px" height="36px" viewBox="0 0 130 36" version="1.1" xmlns="http://www.w3.org/2000/svg" xmlns:xlink="http://www.w3.org/1999/xlink">
    <!-- Generator: Sketch 43.1 (39012) - http://www.bohemiancoding.com/sketch -->
    <title>Parrolabs-Logo_FullColour Copy</title>
    <desc>Created with Sketch.</desc>
    <defs/>
    <g id="Page-1" stroke="none" stroke-width="1" fill="none" fill-rule="evenodd">
        <g id="iPhone-5-(320-x-568)-V1-Navigation-UI" transform="translate(-19.000000, -25.000000)">
            <g id="Parrolabs-Logo_FullColour-Copy" transform="translate(19.000000, 25.000000)">
                <path d="M87.1597188,30.1665 L90.3426875,30.1665 L90.3426875,12.9557187 L87.1597188,12.9557187 L87.1597188,30.1665 Z M100.225531,26.040625 C100.225531,27.079 99.3061875,27.8805312 97.4435313,27.8805312 C96.2170625,27.8805312 95.6044375,27.4551875 95.6044375,26.6069375 C95.6044375,25.946375 95.9347188,25.4275937 97.5142188,25.0501875 C99.0230313,24.674 99.8477188,24.2965937 99.9663438,24.1787812 C100.036625,24.1076875 100.107719,23.989875 100.178406,23.8724687 L100.225531,23.8724687 L100.225531,26.040625 L100.225531,26.040625 Z M101.710375,18.5193125 C100.743906,17.7177812 99.4942813,17.3184375 97.9623125,17.3184375 C95.1563438,17.3184375 93.4115,18.8024687 92.8224375,20.9011562 L95.3684063,21.9626875 C95.769375,20.71225 96.3356875,19.9107187 98.0094375,19.9107187 C99.424,19.9107187 100.131281,20.4770312 100.131281,21.230625 C100.131281,21.6084375 99.942375,21.8915937 99.5885313,22.1036562 C99.2350938,22.3157187 98.3389063,22.5757187 96.9011875,22.9283437 C93.8120625,23.6835625 92.6570938,24.6492187 92.6570938,26.819 C92.6570938,28.8945312 94.14275,30.52075 97.160375,30.52075 C99.6831875,30.52075 100.555,28.9887812 100.555,28.964 L100.602531,28.964 L100.602531,30.1665 L103.172063,30.1665 L103.172063,22.2442187 C103.172063,20.5712812 102.677656,19.3208437 101.710375,18.5193125 L101.710375,18.5193125 Z M111.809344,27.7615 C110.135594,27.7615 109.122,26.559 109.122,25.0501875 L109.122,22.7642187 C109.122,21.2554062 110.135594,20.0760625 111.809344,20.0760625 C113.601313,20.0760625 114.638469,21.3728125 114.638469,23.9187812 C114.638469,26.4415937 113.601313,27.7615 111.809344,27.7615 L111.809344,27.7615 Z M112.351688,17.3184375 C111.031781,17.3184375 110.182719,17.883125 109.640375,18.3320312 C109.263375,18.6846562 109.239406,18.7793125 109.169125,18.8735625 L109.122,18.8735625 L109.122,12.9557187 L106.056844,12.9557187 L106.056844,30.1665 L108.933094,30.1665 L108.933094,28.964 L108.980219,28.964 L109.310094,29.3649687 C109.710656,29.8601875 110.937125,30.52075 112.281406,30.52075 C113.931188,30.52075 115.251906,29.9312812 116.218375,28.7287812 C117.208813,27.5262812 117.703219,25.9228125 117.703219,23.9187812 C117.703219,21.9626875 117.184844,20.3592187 116.17125,19.1567187 C115.157656,17.9310625 113.884063,17.3184375 112.351688,17.3184375 L112.351688,17.3184375 Z M129.181813,24.31975 C128.663438,23.7067187 127.673,23.2115 126.211313,22.8109375 C124.537563,22.338875 123.5,22.009 123.075875,21.8200937 C122.674906,21.6084375 122.462844,21.3496562 122.462844,20.9954062 C122.462844,20.3592187 123.217656,19.8408437 124.420156,19.8408437 C125.952125,19.8408437 126.659406,20.5712812 127.1075,21.7737812 L129.653875,20.9954062 C128.946594,18.5440937 127.20175,17.3184375 124.396188,17.3184375 C122.934094,17.3184375 121.779125,17.6942187 120.930063,18.4494375 C120.105375,19.2034375 119.680438,20.0992187 119.680438,21.136375 C119.680438,22.9994375 120.977188,23.989875 123.877406,24.8149687 C124.042344,24.8629062 124.254406,24.932375 124.560719,25.003875 C125.669781,25.3101875 126.377063,25.5701875 126.7305,25.7574687 C127.084344,25.9228125 127.248875,26.206375 127.248875,26.559 C127.248875,27.4320312 126.282406,27.9504062 124.773594,27.9504062 C123.123,27.9504062 122.179688,27.079 121.967625,25.3333437 L119.209188,26.040625 C119.398094,27.2910625 119.963594,28.351375 120.882938,29.224 C121.82625,30.0970312 123.170125,30.52075 124.891406,30.52075 C126.541594,30.52075 127.791625,30.1201875 128.663438,29.3418125 C129.535656,28.539875 129.98375,27.6440937 129.98375,26.6300937 C129.98375,25.6875937 129.724563,24.9092187 129.181813,24.31975 L129.181813,24.31975 Z M81.0485,26.7710625 C80.5532813,27.4320312 79.846,27.7615 78.9737813,27.7615 C78.10075,27.7615 77.393875,27.4320312 76.89825,26.7710625 C76.4038438,26.1117187 76.1438438,25.1692187 76.1438438,23.9187812 C76.1438438,22.6699687 76.4038438,21.7258437 76.89825,21.0665 C77.4178438,20.4059375 78.10075,20.0760625 78.9737813,20.0760625 C79.846,20.0760625 80.5297188,20.4059375 81.0245313,21.0896562 C81.5437188,21.750625 81.8029063,22.693125 81.8029063,23.9187812 C81.8029063,25.1444375 81.5437188,26.0885625 81.0485,26.7710625 L81.0485,26.7710625 Z M78.9737813,17.3184375 C77.3463438,17.3184375 75.9561563,17.9062812 74.8239375,19.085625 C73.6925313,20.2649687 73.1262188,21.8684375 73.1262188,23.9187812 C73.1262188,25.9943125 73.6685625,27.6205312 74.7768125,28.7750937 C75.8846563,29.9312812 77.2760625,30.52075 78.9737813,30.52075 C80.6706875,30.52075 82.0620938,29.9312812 83.1699375,28.7750937 C84.2781875,27.6205312 84.8205313,25.9943125 84.8205313,23.9187812 C84.8205313,21.8684375 84.2550313,20.2649687 83.1228125,19.085625 C81.9918125,17.9062812 80.6004063,17.3184375 78.9737813,17.3184375 L78.9737813,17.3184375 Z M60.0652813,18.991375 L60.01775,18.991375 L60.01775,17.6710625 L57.1183438,17.6710625 L57.1183438,30.1665 L60.1835,30.1665 L60.1835,23.3061563 C60.1835,21.396375 60.8907813,20.453875 62.3285,20.453875 C62.635625,20.453875 62.9423438,20.5233437 63.2957813,20.642375 L63.7670313,17.6710625 C63.4131875,17.5057187 63.0357813,17.4358438 62.635625,17.4358438 C61.5269688,17.4358438 60.5373438,18.048875 60.0652813,18.991375 L60.0652813,18.991375 Z M68.5120313,18.991375 L68.4649063,18.991375 L68.4649063,17.6710625 L65.5655,17.6710625 L65.5655,30.1665 L68.63025,30.1665 L68.63025,23.3061563 C68.63025,21.396375 69.3375313,20.453875 70.77525,20.453875 C71.082375,20.453875 71.3890938,20.5233437 71.7425313,20.642375 L72.2137813,17.6710625 C71.8603438,17.5057187 71.4825313,17.4358438 71.082375,17.4358438 C69.9737188,17.4358438 68.9840938,18.048875 68.5120313,18.991375 L68.5120313,18.991375 Z M36.0364063,27.7615 C34.4097813,27.7615 33.3486563,26.6300937 33.3486563,25.192375 L33.3486563,22.6220312 C33.3486563,21.2074687 34.4097813,20.0760625 36.0364063,20.0760625 C37.8515313,20.0760625 39.1011563,21.4443125 39.1011563,23.9187812 C39.1011563,26.394875 37.828375,27.7615 36.0364063,27.7615 L36.0364063,27.7615 Z M36.625875,17.3184375 C34.1977188,17.3415937 33.2544063,18.8504062 33.2544063,18.8735625 L33.2072813,18.8735625 L33.2072813,17.6710625 L30.2839063,17.6710625 L30.2839063,35.4717187 L33.3486563,35.4717187 L33.3486563,28.964 L33.3961875,28.964 L33.4904375,29.12975 C33.7727813,29.5303125 34.786375,30.52075 36.673,30.52075 C38.205375,30.52075 39.502125,29.9312812 40.5628438,28.7519375 C41.6239688,27.5725937 42.1663125,25.9711562 42.1663125,23.9187812 C42.1663125,21.8915937 41.6008125,20.288125 40.4925625,19.1087812 C39.3843125,17.9062812 38.1107188,17.3184375 36.625875,17.3184375 L36.625875,17.3184375 Z M51.2870312,26.040625 C51.2870312,27.079 50.3676875,27.8805312 48.5054375,27.8805312 C47.2789687,27.8805312 46.6659375,27.4551875 46.6659375,26.6069375 C46.6659375,25.946375 46.9962187,25.4275937 48.5757187,25.0501875 C50.0845312,24.674 50.909625,24.2965937 51.0278437,24.1787812 C51.0985312,24.1076875 51.169625,23.989875 51.2399062,23.8724687 L51.2870312,23.8724687 L51.2870312,26.040625 L51.2870312,26.040625 Z M52.771875,18.5193125 C51.8054062,17.7177812 50.5557812,17.3184375 49.0238125,17.3184375 C46.2178437,17.3184375 44.473,18.8024687 43.8843437,20.9011562 L46.4299062,21.9626875 C46.830875,20.71225 47.3971875,19.9107187 49.0709375,19.9107187 C50.4855,19.9107187 51.1927812,20.4770312 51.1927812,21.230625 C51.1927812,21.6084375 51.003875,21.8915937 50.6504375,22.1036562 C50.2965937,22.3157187 49.4008125,22.5757187 47.9626875,22.9283437 C44.8739687,23.6835625 43.7185937,24.6492187 43.7185937,26.819 C43.7185937,28.8945312 45.20425,30.52075 48.2222812,30.52075 C50.7446875,30.52075 51.6169062,28.9887812 51.6169062,28.964 L51.6640312,28.964 L51.6640312,30.1665 L54.2339687,30.1665 L54.2339687,22.2442187 C54.2339687,20.5712812 53.7391562,19.3208437 52.771875,18.5193125 L52.771875,18.5193125 Z" id="Fill-1" fill="#26396C"/>
                <path d="M12.1521562,13.0564688 L12.1521562,30.2315 C16.895125,30.2315 20.739875,26.38675 20.739875,21.6437813 C20.739875,16.9012188 16.895125,13.0564688 12.1521562,13.0564688 L12.1521562,13.0564688 Z M7.4806875,15.4135313 C6.202625,15.4135313 5.1666875,16.449875 5.1666875,17.7279375 C5.1666875,19.006 6.202625,20.0419375 7.4806875,20.0419375 C8.75875,20.0419375 9.79509375,19.006 9.79509375,17.7279375 C9.79509375,16.449875 8.75875,15.4135313 7.4806875,15.4135313 L7.4806875,15.4135313 Z" id="Fill-2" fill="#26396C"/>
                <path d="M9.79509375,11.4233438 C7.618,13.6004375 4.08809375,13.6004375 1.91140625,11.4233438 C-0.2656875,9.24665625 -0.2656875,5.71675 1.91140625,3.53965625 L9.79509375,11.4233438" id="Fill-3" fill="#F9C73E"/>
                <path d="M9.79509375,11.4940313 C6.716125,11.4940313 4.220125,8.99803125 4.220125,5.9190625 C4.220125,2.8405 6.716125,0.3445 9.79509375,0.3445 L9.79509375,11.4940313" id="Fill-4" fill="#DA2F35"/>
            </g>
        </g>
    </g>
</svg>